<svg width="118" height="67" viewBox="0 0 118 67" fill="none" xmlns="http://www.w3.org/2000/svg">
<path d="M56.02 33.356C56.02 39.692 54.796 45.344 52.348 50.312C49.972 55.208 46.66 59.06 42.412 61.868C38.236 64.676 33.484 66.08 28.156 66.08C22.828 66.08 18.04 64.676 13.792 61.868C9.616 59.06 6.304 55.208 3.856 50.312C1.48 45.344 0.292 39.692 0.292 33.356C0.292 27.02 1.48 21.404 3.856 16.508C6.304 11.54 9.616 7.652 13.792 4.844C18.04 1.964 22.828 0.524 28.156 0.524C33.484 0.524 38.236 1.964 42.412 4.844C46.66 7.652 49.972 11.54 52.348 16.508C54.796 21.404 56.02 27.02 56.02 33.356ZM41.44 33.356C41.44 29.468 40.864 26.084 39.712 23.204C38.632 20.252 37.084 17.948 35.068 16.292C33.052 14.636 30.748 13.808 28.156 13.808C25.492 13.808 23.152 14.636 21.136 16.292C19.12 17.948 17.536 20.252 16.384 23.204C15.304 26.084 14.764 29.468 14.764 33.356C14.764 37.244 15.304 40.628 16.384 43.508C17.536 46.388 19.12 48.656 21.136 50.312C23.152 51.968 25.492 52.796 28.156 52.796C30.748 52.796 33.016 51.968 34.96 50.312C36.976 48.656 38.56 46.388 39.712 43.508C40.864 40.556 41.44 37.172 41.44 33.356ZM65.4438 65C65.4438 61.76 65.6958 58.844 66.1998 56.252C66.7038 53.66 67.5678 51.248 68.7918 49.016C70.0878 46.784 71.8158 44.696 73.9758 42.752C76.2078 40.736 79.0158 38.792 82.3998 36.92C85.3518 35.336 87.9438 33.968 90.1758 32.816C92.4078 31.592 94.2798 30.476 95.7918 29.468C97.3758 28.46 98.5638 27.452 99.3558 26.444C100.148 25.364 100.544 24.14 100.544 22.772C100.544 21.332 100.148 20.036 99.3558 18.884C98.5638 17.66 97.4478 16.688 96.0078 15.968C94.5678 15.248 92.7678 14.888 90.6078 14.888C88.8798 14.888 87.2598 15.104 85.7478 15.536C84.3078 15.968 82.9398 16.58 81.6438 17.372C80.4198 18.164 79.2678 19.064 78.1878 20.072C77.1078 21.008 76.1358 22.016 75.2718 23.096L66.0918 12.512C67.0998 11.504 68.4318 10.424 70.0878 9.272C71.8158 8.048 73.8318 6.93199 76.1358 5.92399C78.5118 4.844 81.1038 3.98 83.9118 3.332C86.7918 2.612 89.8518 2.252 93.0918 2.252C97.9878 2.252 102.164 3.044 105.62 4.628C109.076 6.14 111.704 8.264 113.504 11C115.376 13.736 116.312 16.94 116.312 20.612C116.312 23.132 115.844 25.364 114.908 27.308C113.972 29.252 112.784 30.98 111.344 32.492C109.904 33.932 108.32 35.228 106.592 36.38C104.936 37.532 103.316 38.54 101.732 39.404C99.4998 40.556 97.4838 41.636 95.6838 42.644C93.8838 43.58 92.2998 44.552 90.9318 45.56C89.5638 46.496 88.3398 47.468 87.2598 48.476C86.2518 49.484 85.3518 50.636 84.5598 51.932H117.5V65H65.4438Z" fill="#CE4257"/>
</svg>
