<svg width="118" height="81" viewBox="0 0 118 81" fill="none" xmlns="http://www.w3.org/2000/svg">
<path d="M56.02 33.356C56.02 39.692 54.796 45.344 52.348 50.312C49.972 55.208 46.66 59.06 42.412 61.868C38.236 64.676 33.484 66.08 28.156 66.08C22.828 66.08 18.04 64.676 13.792 61.868C9.616 59.06 6.304 55.208 3.856 50.312C1.48 45.344 0.292 39.692 0.292 33.356C0.292 27.02 1.48 21.404 3.856 16.508C6.304 11.54 9.616 7.652 13.792 4.844C18.04 1.964 22.828 0.524 28.156 0.524C33.484 0.524 38.236 1.964 42.412 4.844C46.66 7.652 49.972 11.54 52.348 16.508C54.796 21.404 56.02 27.02 56.02 33.356ZM41.44 33.356C41.44 29.468 40.864 26.084 39.712 23.204C38.632 20.252 37.084 17.948 35.068 16.292C33.052 14.636 30.748 13.808 28.156 13.808C25.492 13.808 23.152 14.636 21.136 16.292C19.12 17.948 17.536 20.252 16.384 23.204C15.304 26.084 14.764 29.468 14.764 33.356C14.764 37.244 15.304 40.628 16.384 43.508C17.536 46.388 19.12 48.656 21.136 50.312C23.152 51.968 25.492 52.796 28.156 52.796C30.748 52.796 33.016 51.968 34.96 50.312C36.976 48.656 38.56 46.388 39.712 43.508C40.864 40.556 41.44 37.172 41.44 33.356ZM102.488 39.512C105.512 40.016 108.14 41.168 110.372 42.968C112.604 44.696 114.332 46.928 115.556 49.664C116.852 52.4 117.5 55.424 117.5 58.736C117.5 63.2 116.348 67.088 114.044 70.4C111.74 73.712 108.464 76.268 104.216 78.068C100.04 79.94 95.1078 80.876 89.4198 80.876C83.9478 80.876 79.0878 79.976 74.8398 78.176C70.6638 76.448 67.1718 73.892 64.3638 70.508L72.5718 60.248C74.4438 62.552 76.6758 64.352 79.2678 65.648C81.9318 67.016 85.1718 67.7 88.9878 67.7C93.3798 67.7 96.7278 66.8 99.0318 65C101.336 63.272 102.488 60.644 102.488 57.116C102.488 53.372 101.156 50.492 98.4918 48.476C95.8278 46.46 91.7958 45.452 86.3958 45.452H83.3718V34.652H86.7198C91.1118 34.652 94.5318 33.644 96.9798 31.628C99.4998 29.612 100.76 27.092 100.76 24.068C100.76 22.124 100.292 20.504 99.3558 19.208C98.4198 17.912 97.1238 16.94 95.4678 16.292C93.8838 15.644 92.0118 15.32 89.8518 15.32C86.6118 15.32 83.6598 16.076 80.9958 17.588C78.3318 19.1 76.1718 21.224 74.5158 23.96L65.4438 13.808C66.9558 11.576 69.0078 9.668 71.5998 8.084C74.2638 6.428 77.2878 5.132 80.6718 4.196C84.1278 3.26 87.7278 2.792 91.4718 2.792C96.3678 2.792 100.652 3.584 104.324 5.168C108.068 6.752 110.984 8.984 113.072 11.864C115.16 14.744 116.204 18.092 116.204 21.908C116.204 24.716 115.628 27.38 114.476 29.9C113.324 32.42 111.704 34.544 109.616 36.272C107.6 37.928 105.224 39.008 102.488 39.512Z" fill="#CE4257"/>
</svg>
