<svg width="120" height="79" viewBox="0 0 120 79" fill="none" xmlns="http://www.w3.org/2000/svg">
<path d="M56.02 33.356C56.02 39.692 54.796 45.344 52.348 50.312C49.972 55.208 46.66 59.06 42.412 61.868C38.236 64.676 33.484 66.08 28.156 66.08C22.828 66.08 18.04 64.676 13.792 61.868C9.616 59.06 6.304 55.208 3.856 50.312C1.48 45.344 0.292 39.692 0.292 33.356C0.292 27.02 1.48 21.404 3.856 16.508C6.304 11.54 9.616 7.652 13.792 4.844C18.04 1.964 22.828 0.524 28.156 0.524C33.484 0.524 38.236 1.964 42.412 4.844C46.66 7.652 49.972 11.54 52.348 16.508C54.796 21.404 56.02 27.02 56.02 33.356ZM41.44 33.356C41.44 29.468 40.864 26.084 39.712 23.204C38.632 20.252 37.084 17.948 35.068 16.292C33.052 14.636 30.748 13.808 28.156 13.808C25.492 13.808 23.152 14.636 21.136 16.292C19.12 17.948 17.536 20.252 16.384 23.204C15.304 26.084 14.764 29.468 14.764 33.356C14.764 37.244 15.304 40.628 16.384 43.508C17.536 46.388 19.12 48.656 21.136 50.312C23.152 51.968 25.492 52.796 28.156 52.796C30.748 52.796 33.016 51.968 34.96 50.312C36.976 48.656 38.56 46.388 39.712 43.508C40.864 40.556 41.44 37.172 41.44 33.356ZM95.0358 78.716V62.624H63.4998V49.772L99.6798 3.332H109.508V49.664H119.012V62.624H109.508V78.716H95.0358ZM77.9718 49.664H96.6558V25.256L77.9718 49.664Z" fill="#CE4257"/>
</svg>
